# xmcd CD database file generated by OrangeCD 6.1
#
# Track frame offsets:
#	182
#	14467
#	32930
#	50280
#	73745
#	92892
#	114372
#	127530
#	149290
#	164632
#	183207
#
# Disc length: 2656 seconds
#
# Revision: 4
# Processed by: cddbd v1.5.2PL0 Copyright (c) Steve Scherf et al.
# Submitted via: OrangeCD 6.1
#
DISCID=910a5e0b
DTITLE=Hound Dog Taylor - Freddie's Blues
DYEAR=1900
DGENRE=
TTITLE0=Dust My Broom
TTITLE1=Philip's Crawl
TTITLE2=Freddie's Blues
TTITLE3=Strollin' With Brewer
TTITLE4=It Hurts Me Too
TTITLE5=Jumping With Symphony Sid
TTITLE6=Take Five
TTITLE7=Blues For Suzie
TTITLE8=Roll Your Moneymaker
TTITLE9=Let's Get Funky
TTITLE10=Florence's Blues
EXTD=
EXTT0=
EXTT1=
EXTT2=
EXTT3=
EXTT4=
EXTT5=
EXTT6=
EXTT7=
EXTT8=
EXTT9=
EXTT10=
PLAYORDER=
